<svg width="495" height="195" viewBox="0 0 495 195" fill="none" xmlns="http://www.w3.org/2000/svg">
<style>
    .header { font: 600 18px 'Segoe UI', Ubuntu, Sans-Serif; fill: url(#gold_gradient); }
    .stat_text { font: 400 14px 'Segoe UI', Ubuntu, "Helvetica Neue", Sans-Serif; fill: #C8C8C8; }
    .stat_value { font: 600 28px 'Segoe UI', Ubuntu, "Helvetica Neue", Sans-Serif; fill: #fff; }
    .icon { fill: url(#gold_gradient); }
</style>

<defs>
    <linearGradient id="gold_gradient" x1="0%" y1="0%" x2="100%" y2="0%">
        <stop offset="0%" style="stop-color:#F7D060;stop-opacity:1" />
        <stop offset="100%" style="stop-color:#EAC54F;stop-opacity:1" />
    </linearGradient>
</defs>

<rect x="0.5" y="0.5" rx="4.5" height="99%" width="99%" fill="#281E36" stroke="#4F4659"/>

<g transform="translate(25, 35)">
    <text x="0" y="0" class="header">Kapisch's GitHub Stats</text>
</g>

<g transform="translate(0, 75)">
    <g transform="translate(50, 0)">
        <svg x="0" y="0" class="icon" width="24" height="24" viewBox="0 0 24 24" fill="none" xmlns="http://www.w3.org/2000/svg"><path d="M12 2L15.09 8.26L22 9.27L17 14.14L18.18 21.02L12 17.77L5.82 21.02L7 14.14L2 9.27L8.91 8.26L12 2Z"/></svg>
        <text x="35" y="17" class="stat_text">Total Stars Earned</text>
        <text x="210" y="17" class="stat_value">3</text>
    </g>
    <g transform="translate(50, 40)">
        <svg x="0" y="0" class="icon" width="24" height="24" viewBox="0 0 24 24" fill="none" xmlns="http://www.w3.org/2000/svg"><path d="M17 3C18.1046 3 19 3.89543 19 5L19 6C19.5523 6 20 6.44772 20 7L20 17C20 17.5523 19.5523 18 19 18L19 19C19 20.1046 18.1046 21 17 21L7 21C5.89543 21 5 20.1046 5 19L5 18C4.44772 18 4 17.5523 4 17L4 7C4 6.44772 4.44772 6 5 6L5 5C5 3.89543 5.89543 3 7 3L17 3ZM17 5L7 5L7 19L17 19L17 5Z M12 10.5C12.8284 10.5 13.5 11.1716 13.5 12C13.5 12.8284 12.8284 13.5 12 13.5C11.1716 13.5 10.5 12.8284 10.5 12C10.5 11.1716 11.1716 10.5 12 10.5Z"/></svg>
        <text x="35" y="17" class="stat_text">Total Commits (2025)</text>
        <text x="210" y="17" class="stat_value">115</text>
    </g>
    <g transform="translate(250, 0)">
        <svg x="0" y="0" class="icon" width="24" height="24" viewBox="0 0 24 24" fill="none" xmlns="http://www.w3.org/2000/svg"><path d="M13 2.05C12.67 2.02 12.34 2 12 2C9.24 2 7 4.24 7 7C7 8.57 7.78 9.95 8.87 10.87C9.13 11.05 9.26 11.36 9.17 11.66C9.04 12.09 9 12.55 9 13C9 14.1 9.21 15.14 9.59 16.09C9.71 16.38 9.61 16.72 9.38 16.92L6.16 19.57C5.88 19.8 5.47 19.74 5.25 19.47C4.48 18.52 4 17.3 4 16C4 13.24 6.24 11 9 11C9.62 11 10.21 11.1 10.76 11.29C11.33 11.48 11.95 11.28 12.24 10.81C12.84 9.83 13.16 8.7 13.16 7.5C13.16 6.33 12.88 5.23 12.39 4.28C12.2 3.9 12.45 3.44 12.88 3.33C14.08 3.1 15.39 3.29 16.5 4C16.8 4.14 17.15 3.93 17.25 3.61C17.42 3.03 17.5 2.5 17.5 2C17.5 1.54 17.43 1.1 17.33 0.67C17.27 0.35 16.95 0.16 16.65 0.28C15.93 0.55 15.15 0.73 14.33 0.83C13.88 0.89 13.43 0.69 13.23 0.27L13 2.05Z M18 10C16.9 10 16 10.9 16 12C16 13.1 16.9 14 18 14C19.1 14 20 13.1 20 12C20 10.9 19.1 10 18 10Z M20 16.5C20 16.22 19.78 16 19.5 16H16.5C16.22 16 16 16.22 16 16.5V19.5C16 19.78 16.22 20 16.5 20H19.5C19.78 20 20 19.78 20 19.5V16.5Z"/></svg>
        <text x="35" y="17" class="stat_text">Total PRs</text>
        <text x="140" y="17" class="stat_value">5</text>
    </g>
    <g transform="translate(250, 40)">
        <svg x="0" y="0" class="icon" width="24" height="24" viewBox="0 0 24 24" fill="none" xmlns="http://www.w3.org/2000/svg"><path d="M12 2C6.48 2 2 6.48 2 12C2 17.52 6.48 22 12 22C17.52 22 22 17.52 22 12C22 6.48 17.52 2 12 2ZM13 17H11V15H13V17ZM13 13H11V7H13V13Z"/></svg>
        <text x="35" y="17" class="stat_text">Total Issues</text>
        <text x="140" y="17" class="stat_value">0</text>
    </g>
</g>
</svg>
