<svg width="540" height="200" viewBox="0 0 540 200" fill="none" xmlns="http://www.w3.org/2000/svg">
  <defs>
    <linearGradient id="gold-gradient" x1="0%" y1="0%" x2="100%" y2="100%">
      <stop offset="0%" stop-color="#FDE08D"/>
      <stop offset="100%" stop-color="#D9A44D"/>
    </linearGradient>
    <linearGradient id="gloss" x1="0%" y1="0%" x2="0%" y2="100%">
        <stop offset="0%" stop-color="white" stop-opacity="0.5"/>
        <stop offset="50%" stop-color="white" stop-opacity="0"/>
    </linearGradient>
    <style>
      .header { font: 600 20px 'Segoe UI', 'Ubuntu', Sans-Serif; fill: url(#gold-gradient); text-anchor: middle; }
      .stat-label { font: 400 14px 'Segoe UI', 'Ubuntu', Sans-Serif; fill: #BEB9CC; text-anchor: start; }
      .stat-value { font: 700 28px 'Segoe UI', 'Ubuntu', Sans-Serif; fill: #FFFFFF; text-anchor: end; }
      .icon { fill: url(#gold-gradient); }
      .icon-gloss { fill: url(#gloss); }
    </style>
  </defs>

  <rect x="0.5" y="0.5" rx="10" height="99%" width="99%" fill="#1F162C" stroke="#3D2E50"/>

  <text x="50%" y="45" class="header">Kapisch's GitHub Stats</text>
  
  <g transform="translate(0, 60)">
    <g transform="translate(40, 0)">
      <g class="stat-item" transform="translate(0, 30)">
        <g class="icon">
            <path d="M12 2L15.09 8.26L22 9.27L17 14.14L18.18 21.02L12 17.77L5.82 21.02L7 14.14L2 9.27L8.91 8.26L12 2Z"/>
            <path class="icon-gloss" d="M12 2L15.09 8.26L22 9.27L17 14.14L18.18 21.02L12 17.77L5.82 21.02L7 14.14L2 9.27L8.91 8.26L12 2Z"/>
        </g>
        <text x="35" y="17" class="stat-label">Total Stars Earned</text>
        <text x="230" y="17" class="stat-value">3</text>
      </g>
      <g class="stat-item" transform="translate(0, 80)">
        <g class="icon">
            <path d="M17 3C18.1 3 19 3.9 19 5V6C19.55 6 20 6.45 20 7V17C20 17.55 19.55 18 19 18V19C19 20.1 18.1 21 17 21H7C5.9 21 5 20.1 5 19V18C4.45 18 4 17.55 4 17V7C4 6.45 4.45 6 5 6V5C5 3.9 5.9 3 7 3H17ZM17 5H7V19H17V5ZM12 10.5C12.83 10.5 13.5 11.17 13.5 12C13.5 12.83 12.83 13.5 12 13.5C11.17 13.5 10.5 12.83 10.5 12C10.5 11.17 11.17 10.5 12 10.5Z"/>
            <path class="icon-gloss" d="M17 3C18.1 3 19 3.9 19 5V6C19.55 6 20 6.45 20 7V17C20 17.55 19.55 18 19 18V19C19 20.1 18.1 21 17 21H7C5.9 21 5 20.1 5 19V18C4.45 18 4 17.55 4 17V7C4 6.45 4.45 6 5 6V5C5 3.9 5.9 3 7 3H17ZM17 5H7V19H17V5ZM12 10.5C12.83 10.5 13.5 11.17 13.5 12C13.5 12.83 12.83 13.5 12 13.5C11.17 13.5 10.5 12.83 10.5 12C10.5 11.17 11.17 10.5 12 10.5Z"/>
        </g>
        <text x="35" y="17" class="stat-label">Total Commits (2025)</text>
        <text x="230" y="17" class="stat-value">115</text>
      </g>
    </g>
    <g transform="translate(270, 0)">
      <g class="stat-item" transform="translate(0, 30)">
        <g class="icon">
            <path d="M13 2.05C12.67 2.02 12.34 2 12 2C9.24 2 7 4.24 7 7C7 8.57 7.78 9.95 8.87 10.87C9.13 11.05 9.26 11.36 9.17 11.66C9.04 12.09 9 12.55 9 13C9 14.1 9.21 15.14 9.59 16.09C9.71 16.38 9.61 16.72 9.38 16.92L6.16 19.57C5.88 19.8 5.47 19.74 5.25 19.47C4.48 18.52 4 17.3 4 16C4 13.24 6.24 11 9 11C9.62 11 10.21 11.1 10.76 11.29C11.33 11.48 11.95 11.28 12.24 10.81C12.84 9.83 13.16 8.7 13.16 7.5C13.16 6.33 12.88 5.23 12.39 4.28C12.2 3.9 12.45 3.44 12.88 3.33C14.08 3.1 15.39 3.29 16.5 4C16.8 4.14 17.15 3.93 17.25 3.61C17.42 3.03 17.5 2.5 17.5 2C17.5 1.54 17.43 1.1 17.33 0.67C17.27 0.35 16.95 0.16 16.65 0.28C15.93 0.55 15.15 0.73 14.33 0.83C13.88 0.89 13.43 0.69 13.23 0.27L13 2.05Z M18 10C16.9 10 16 10.9 16 12C16 13.1 16.9 14 18 14C19.1 14 20 13.1 20 12C20 10.9 19.1 10 18 10Z M20 16.5C20 16.22 19.78 16 19.5 16H16.5C16.22 16 16 16.22 16 16.5V19.5C16 19.78 16.22 20 16.5 20H19.5C19.78 20 20 19.78 20 19.5V16.5Z"/>
            <path class="icon-gloss" d="M13 2.05C12.67 2.02 12.34 2 12 2C9.24 2 7 4.24 7 7C7 8.57 7.78 9.95 8.87 10.87C9.13 11.05 9.26 11.36 9.17 11.66C9.04 12.09 9 12.55 9 13C9 14.1 9.21 15.14 9.59 16.09C9.71 16.38 9.61 16.72 9.38 16.92L6.16 19.57C5.88 19.8 5.47 19.74 5.25 19.47C4.48 18.52 4 17.3 4 16C4 13.24 6.24 11 9 11C9.62 11 10.21 11.1 10.76 11.29C11.33 11.48 11.95 11.28 12.24 10.81C12.84 9.83 13.16 8.7 13.16 7.5C13.16 6.33 12.88 5.23 12.39 4.28C12.2 3.9 12.45 3.44 12.88 3.33C14.08 3.1 15.39 3.29 16.5 4C16.8 4.14 17.15 3.93 17.25 3.61C17.42 3.03 17.5 2.5 17.5 2C17.5 1.54 17.43 1.1 17.33 0.67C17.27 0.35 16.95 0.16 16.65 0.28C15.93 0.55 15.15 0.73 14.33 0.83C13.88 0.89 13.43 0.69 13.23 0.27L13 2.05Z M18 10C16.9 10 16 10.9 16 12C16 13.1 16.9 14 18 14C19.1 14 20 13.1 20 12C20 10.9 19.1 10 18 10Z M20 16.5C20 16.22 19.78 16 19.5 16H16.5C16.22 16 16 16.22 16 16.5V19.5C16 19.78 16.22 20 16.5 20H19.5C19.78 20 20 19.78 20 19.5V16.5Z"/>
        </g>
        <text x="35" y="17" class="stat-label">Total PRs</text>
        <text x="230" y="17" class="stat-value">5</text>
      </g>
      <g class="stat-item" transform="translate(0, 80)">
        <g class="icon">
            <path d="M12 2C6.48 2 2 6.48 2 12C2 17.52 6.48 22 12 22C17.52 22 22 17.52 22 12C22 6.48 17.52 2 12 2ZM13 17H11V15H13V17ZM13 13H11V7H13V13Z"/>
            <path class="icon-gloss" d="M12 2C6.48 2 2 6.48 2 12C2 17.52 6.48 22 12 22C17.52 22 22 17.52 22 12C22 6.48 17.52 2 12 2ZM13 17H11V15H13V17ZM13 13H11V7H13V13Z"/>
        </g>
        <text x="35" y="17" class="stat-label">Total Issues</text>
        <text x="230" y="17" class="stat-value">0</text>
      </g>
    </g>
  </g>
</svg>
